<?xml version="1.0" standalone="no"?><!DOCTYPE svg PUBLIC "-//W3C//DTD SVG 1.1//EN" "http://www.w3.org/Graphics/SVG/1.1/DTD/svg11.dtd"><svg t="1701852101745" class="icon" viewBox="0 0 1024 1024" version="1.1" xmlns="http://www.w3.org/2000/svg" p-id="2636" xmlns:xlink="http://www.w3.org/1999/xlink" width="32" height="32"><path d="M42.794667 123.178667s295.68-97.429333 323.093333 161.301333l-44.309333 51.968s-106.88 2.112-143.808-84.224c0 0.021333-35.541333-93.930667-134.976-129.045333z" fill="#F5B21B" p-id="2637"></path><path d="M97.130667 119.936s210.176-38.954667 224.533333 97.813333c1.877333 31.082667-28.693333 57.792-60.842667 53.482667-21.397333-2.858667-45.461333-19.008-59.456-51.690667 0.021333 0-38.634667-76.437333-104.234666-99.605333z" fill="#F9ECC9" opacity=".5" p-id="2638"></path><path d="M330.581333 373.546667c37.802667 73.301333 135.466667 180.842667 259.2 290.922666 126.634667 112.682667 244.672 201.834667 321.685334 228.864 14.208 4.138667 34.368-7.253333 49.664-24.426666s24.469333-39.296 18.496-52.16c-35.797333-73.365333-132.373333-186.624-259.008-299.306667-123.733333-110.101333-241.877333-194.581333-319.082667-223.616a32.853333 32.853333 0 0 0-10.688-26.197333l0.256 0.213333c-13.866667-12.330667-35.605333-10.24-48.618667 4.394667l-40.192 45.162666c-13.013333 14.634667-12.586667 36.458667 1.28 48.810667l-0.128-0.106667c7.573333 6.741333 17.472 8.981333 27.136 7.445334z" fill="#AE6223" p-id="2639"></path><path d="M330.261333 373.824l72.106667-80.533333 14.314667 6.037333-78.421334 87.637333z" fill="#68472E" p-id="2640"></path><path d="M646.122667 617.066667C500.757333 483.52 399.146667 357.589333 419.2 335.786667c20.032-21.802667 154.112 68.757333 299.477333 202.304S974.08 788.373333 945.6 819.370667c-29.162667 31.765333-154.112-68.757333-299.477333-202.304z" fill="#E4AF5F" opacity=".3" p-id="2641"></path><path d="M859.562667 869.418667l90.88-102.144 7.658666 11.242666-86.549333 97.28z" fill="#68472E" p-id="2642"></path><path d="M323.669333 832.938667c0 62.848-44.394667 104.896-99.157333 104.896s-99.157333-42.837333-99.157333-104.896c0-71.530667 59.797333-143.978667 93.632-179.264 9.408-9.813333 26.048-6.165333 30.016 6.848 26.197333 85.952 74.666667 106.517333 74.666666 172.416z" fill="#0EBA0A" p-id="2643"></path><path d="M235.989333 700.714667c-0.725333-17.685333-18.069333-23.808-32.832-4.693334-36.309333 47.04-82.730667 104.917333-35.626666 167.445334a62.506667 62.506667 0 0 0 93.610666-1.557334c17.92-21.333333 15.36-53.674667-1.706666-84.864 0 0-21.482667-28.757333-23.445334-76.330666z" fill="#4BCB48" p-id="2644"></path><path d="M566.357333 832.938667c0 62.848-44.394667 104.896-99.157333 104.896s-99.157333-42.837333-99.157333-104.896c0-71.530667 59.797333-143.978667 93.632-179.264 9.408-9.813333 26.048-6.165333 30.016 6.848 26.197333 85.952 74.666667 106.517333 74.666666 172.416z" fill="#008AF7" p-id="2645"></path><path d="M478.656 700.714667c-0.725333-17.685333-18.069333-23.808-32.832-4.693334-36.309333 47.04-82.730667 104.917333-35.626667 167.445334a62.506667 62.506667 0 0 0 93.610667-1.557334c17.92-21.333333 15.36-53.674667-1.706667-84.864 0.021333 0-21.482667-28.757333-23.445333-76.330666z" fill="#2DA3FF" p-id="2646"></path><path d="M807.466667 832.938667c0 62.848-44.394667 104.896-99.157334 104.896-54.762667 0-99.157333-42.837333-99.157333-104.896 0-71.530667 59.797333-143.978667 93.632-179.264 9.408-9.813333 26.048-6.165333 30.016 6.848 26.197333 85.952 74.666667 106.517333 74.666667 172.416z" fill="#F70013" p-id="2647"></path><path d="M719.786667 700.714667c-0.725333-17.685333-18.069333-23.808-32.832-4.693334-36.309333 47.04-82.730667 104.917333-35.626667 167.445334a62.506667 62.506667 0 0 0 93.610667-1.557334c17.92-21.333333 15.36-53.674667-1.706667-84.864 0 0-21.482667-28.757333-23.445333-76.330666z" fill="#FF2D3E" p-id="2648"></path></svg>